<?xml version="1.0" encoding="utf-8"?>
<!-- Generator: Adobe Illustrator 23.0.4, SVG Export Plug-In . SVG Version: 6.00 Build 0)  -->
<svg version="1.1" id="Layer_1" xmlns="http://www.w3.org/2000/svg" xmlns:xlink="http://www.w3.org/1999/xlink" x="0px" y="0px"
	 viewBox="0 0 740 263" style="enable-background:new 0 0 740 263;" xml:space="preserve">
<style type="text/css">
	.st0{fill:#127BB0;}
	.st1{fill:#85A2B0;}
	.st2{fill:none;stroke:#FF9D11;stroke-width:10;stroke-linejoin:round;}
	.st3{fill:#FF9D11;}
</style>
<path class="st0" d="M220.4,68.5c-42.7-42.3-111.7-42-154,0.7c-7,7.1-13,15-17.8,23.7C64,42.3,117.5,13.8,168.1,29.2
	C189.6,35.8,208.1,49.7,220.4,68.5z"/>
<path class="st1" d="M119.6,21c-58,15.8-92.2,75.7-76.4,133.7c2.6,9.6,6.5,18.7,11.6,27.3c-36.1-38.7-34-99.3,4.6-135.4
	C76,31.3,97.2,22.2,119.6,21z"/>
<path class="st0" d="M28.1,84.5c-15.3,58.2,19.5,117.7,77.7,133c9.6,2.5,19.5,3.7,29.4,3.6c-51.5,11.9-103-20.1-114.9-71.7
	C15.2,127.5,18,104.6,28.1,84.5z"/>
<path class="st1" d="M37.4,195.5c42.7,42.3,111.7,42,154-0.7c7-7.1,13-15,17.8-23.7c-15.4,50.6-68.9,79.1-119.5,63.7
	C68.2,228.2,49.7,214.3,37.4,195.5z"/>
<path class="st0" d="M138.2,243c58-15.8,92.2-75.7,76.4-133.7c-2.6-9.6-6.5-18.7-11.6-27.3c36.1,38.7,34,99.3-4.7,135.4
	C181.8,232.7,160.6,241.8,138.2,243L138.2,243z"/>
<path class="st1" d="M229.7,179.5c15.3-58.2-19.4-117.7-77.6-133c-9.6-2.5-19.5-3.7-29.5-3.6c51.5-12,103,20.1,115,71.7
	C242.6,136.4,239.8,159.4,229.7,179.5z"/>
<polygon class="st2" points="161.8,132 107.6,100.7 107.6,163.3 161.8,132 107.6,100.7 107.6,163.3 "/>
<path class="st1" d="M294.5,58.1c0,4.3-3.5,7.9-7.8,7.9s-7.9-3.5-7.9-7.8c0-4.3,3.5-7.9,7.8-7.9c2.1,0,4.1,0.8,5.6,2.3
	C293.7,54,294.5,56,294.5,58.1z M280.5,83.1c0-3.4,2.8-6.2,6.2-6.2c3.4,0,6.2,2.8,6.2,6.2l0,0V158c0,3.4-2.8,6.2-6.2,6.2
	c-3.4,0-6.2-2.8-6.2-6.2V83.1z"/>
<path class="st1" d="M324,158c0,3.4-2.8,6.2-6.2,6.2c-3.4,0-6.2-2.8-6.2-6.2V83.1c0-3.4,2.8-6.2,6.2-6.2c3.4,0,6.2,2.8,6.2,6.2l0,0
	v1.6c6.1-5.2,13.8-8,21.9-7.9c9.1-0.1,17.9,3.5,24.3,10.1c1.4,1.4,2.7,2.9,3.8,4.4c1.2-1.6,2.4-3.1,3.8-4.4
	c13.4-13.4,35.2-13.4,48.5,0c6.4,6.4,10,15.1,10,24.2V158c0,3.4-2.8,6.2-6.2,6.2c-3.4,0-6.2-2.8-6.2-6.2v-46.8
	c0.3-12.1-9.3-22.1-21.4-22.3c-12.1-0.3-22.1,9.3-22.3,21.4c0,0.3,0,0.6,0,0.9V158c-0.1,3.4-3,6.1-6.5,6c-3.3-0.1-5.9-2.7-6-6v-46.8
	c0.3-12.1-9.3-22.1-21.4-22.3c-12.1-0.3-22.1,9.3-22.3,21.4c0,0.3,0,0.6,0,0.9V158z"/>
<path class="st1" d="M487.7,151.7c3.4,0.1,6.1,3,6,6.5c-0.1,3.3-2.7,5.9-6,6c-20.8,0-31.2-10.4-31.2-31.2V89.3h-6.2
	c-3.4,0-6.2-2.8-6.2-6.2c0-3.4,2.8-6.2,6.2-6.2h6.2V45.6c0-3.4,2.8-6.2,6.2-6.2c3.4,0,6.2,2.8,6.2,6.2v31.2h12.6
	c3.4,0,6.2,2.8,6.2,6.2c0,3.4-2.8,6.2-6.2,6.2h-12.6V133C468.9,145.5,475.2,151.7,487.7,151.7z"/>
<path class="st1" d="M526.5,58.1c0,4.3-3.5,7.9-7.8,7.9s-7.9-3.5-7.9-7.8c0-4.3,3.5-7.9,7.8-7.9c2.1,0,4.1,0.8,5.6,2.3
	C525.7,54,526.5,56,526.5,58.1z M512.5,83.1c0.1-3.4,3-6.1,6.5-6c3.3,0.1,5.9,2.7,6,6V158c-0.1,3.4-3,6.1-6.5,6
	c-3.3-0.1-5.9-2.7-6-6V83.1z"/>
<path class="st1" d="M618.4,151.1c-8.7,8.7-19.1,13.1-31.2,13.1c-24.1,0-43.7-19.6-43.7-43.7c0.4-24.1,20.2-43.4,44.4-43
	c23.6,0.4,42.7,19.4,43,43V158c-0.1,3.4-3,6.1-6.5,6c-3.3-0.1-5.9-2.7-6-6V151.1z M587.2,89.3c-17.2,0-31.2,13.9-31.2,31.1
	c0,0,0,0.1,0,0.1c0,17.2,14,31.2,31.2,31.2c17.2,0,31.2-14,31.2-31.2c0-8.3-3.3-16.2-9.1-22C603.5,92.5,595.5,89.2,587.2,89.3z"/>
<path class="st1" d="M711.9,151.7c3.4,0.1,6.1,3,6,6.5c-0.1,3.3-2.7,5.9-6,6h-62.4c-3.4,0-6.2-2.8-6.2-6.2c0-1.4,0.4-2.7,1.2-3.8
	l54.1-64.8h-49.1c-3.4,0-6.2-2.8-6.2-6.2c0-3.4,2.8-6.2,6.2-6.2h62.4c3.5,0,6.3,2.8,6.2,6.3c0,1.5-0.5,2.9-1.5,4l-53.9,64.6H711.9z"
	/>
<path class="st1" d="M282.2,210.8c-0.8,0-1.5-0.1-2.2-0.3c-0.9-0.2-1.7-0.5-2.4-1c-0.8-0.5-1.5-1.2-2-2.1c-0.6-1.1-0.9-2.3-0.8-3.5
	c0-1.3,0.2-2.5,0.8-3.6c0.5-0.9,1.2-1.7,2-2.4c0.8-0.6,1.7-1.1,2.7-1.3c0.9-0.3,1.9-0.4,2.9-0.4h6.4v11.5c-0.1,0.8,0.1,1.7,0.5,2.4
	c0.6,0.6,1.5,0.8,2.3,0.7h1c0.8-0.1,1.5,0.4,1.6,1.2c0,0.1,0,0.3,0,0.4c0.1,0.5-0.1,1-0.4,1.4c-0.3,0.3-0.8,0.4-1.2,0.4H292
	c-0.7,0-1.3-0.1-2-0.2c-0.6-0.1-1.2-0.3-1.7-0.6c-0.5-0.3-0.9-0.7-1.3-1.2c-0.4-0.6-0.6-1.3-0.7-2c-0.7,0.2-1.3,0.4-2,0.5
	C283.7,210.8,282.9,210.8,282.2,210.8z M278,203.6c0,1,0.3,2,1.1,2.7c1,0.8,2.2,1.1,3.4,1c0.6,0,1.3-0.1,1.9-0.2
	c0.6-0.1,1.2-0.3,1.8-0.5v-7.1h-3.5c-1.2,0-2.3,0.3-3.3,1C278.4,201.3,277.9,202.4,278,203.6z M278.9,188.9c0-0.6,0.2-1.1,0.6-1.5
	c0.8-0.8,2.2-0.9,3,0s0.9,2.2,0,3s-2.2,0.9-3,0c0,0,0,0,0,0C279.1,190,278.9,189.4,278.9,188.9L278.9,188.9z M284.1,188.9
	c0-1.2,0.9-2.1,2.1-2.1c0.6,0,1.1,0.2,1.5,0.6c0.4,0.4,0.6,0.9,0.6,1.5c0,0.6-0.2,1.1-0.6,1.5c-0.8,0.8-2.2,0.8-3,0
	C284.3,190,284.1,189.4,284.1,188.9z"/>
<path class="st1" d="M293.4,214.2c-0.8,0.1-1.5-0.4-1.6-1.2c0-0.1,0-0.3,0-0.4c-0.1-0.5,0.1-1,0.4-1.4c0.3-0.3,0.8-0.4,1.2-0.4h2.7
	c0.6,0,1.1,0,1.6-0.1c0.4,0,0.8-0.2,1.1-0.4c0.3-0.2,0.6-0.5,0.7-0.9c0.2-0.5,0.2-1.1,0.2-1.6v-9.2h3.3v7.7c0,0.6,0,1.2,0.1,1.8
	c0.1,0.5,0.3,1,0.5,1.4c0.3,0.4,0.6,0.7,1.1,0.9c0.5,0.2,1.1,0.3,1.7,0.3c0.8-0.1,1.5,0.4,1.6,1.2c0,0.1,0,0.3,0,0.4
	c0.1,0.5-0.1,1-0.4,1.4c-0.3,0.3-0.8,0.4-1.2,0.4c-0.9,0-1.8-0.2-2.5-0.8c-0.6-0.5-1.1-1.1-1.3-1.9c-0.4,1-1.2,1.8-2.3,2.1
	c-1.2,0.4-2.5,0.5-3.8,0.5L293.4,214.2z M296.5,220.2c0-0.6,0.2-1.1,0.6-1.5c0.4-0.4,0.9-0.6,1.5-0.6c1.2,0,2.1,1,2.1,2.1
	c0,0.6-0.2,1.1-0.6,1.5c-0.4,0.4-0.9,0.6-1.5,0.6C297.5,222.4,296.5,221.4,296.5,220.2z M301.8,220.2c0-0.6,0.2-1.1,0.6-1.5
	c0.8-0.8,2.2-0.8,3,0c0.4,0.4,0.6,0.9,0.6,1.5c0,1.2-0.9,2.1-2.1,2.1c0,0,0,0,0,0C302.7,222.4,301.8,221.4,301.8,220.2z"/>
<path class="st1" d="M331.3,214.2c-0.9,0-1.8-0.2-2.7-0.6c-0.8-0.5-1.4-1.2-1.8-2.1v-0.1c-0.5,1-1.3,1.8-2.2,2.4
	c-1.1,0.6-2.4,0.9-3.7,0.9c-1.3,0-2.6-0.2-3.8-0.6c-1.4-0.5-2.8-1.2-4-2.2c-0.3,0.5-0.6,0.9-1.1,1.3c-0.3,0.3-0.7,0.5-1.1,0.7
	c-0.4,0.1-0.8,0.2-1.2,0.3c-0.4,0-0.9,0.1-1.4,0.1h-1.7c-0.8,0.1-1.5-0.4-1.6-1.2c0-0.1,0-0.3,0-0.4c-0.1-0.5,0.1-1,0.4-1.4
	c0.4-0.3,0.8-0.4,1.2-0.4h1.6c0.3,0,0.7,0,1-0.1c0.4-0.1,0.7-0.3,1-0.5c0.4-0.3,0.7-0.7,1-1.1c0.4-0.6,0.7-1.2,1-1.9
	c0.5-1.5,1.1-2.9,2-4.2c0.6-0.9,1.3-1.8,2.1-2.5c0.6-0.5,1.4-0.9,2.2-1.1c0.7-0.2,1.5-0.3,2.2-0.3c1,0,1.9,0.2,2.8,0.6
	c0.9,0.4,1.6,1,2.2,1.7c0.6,0.7,1.2,1.6,1.5,2.5c0.4,1.1,0.6,2.2,0.5,3.3c0,0.2,0,0.4,0,0.5s0,0.4,0,0.5c0.2,0.8,0.6,1.5,1.2,2
	c0.7,0.5,1.6,0.7,2.4,0.7c0.8-0.1,1.5,0.4,1.6,1.2c0,0.1,0,0.3,0,0.4c0.1,0.5-0.1,1-0.4,1.4C332.1,214.1,331.7,214.2,331.3,214.2z
	 M324.4,207c0-0.6-0.1-1.2-0.3-1.7c-0.2-0.5-0.4-1-0.8-1.5c-0.3-0.4-0.7-0.8-1.2-1c-0.5-0.3-1.1-0.4-1.7-0.4c-1.2,0-2.3,0.6-3.1,1.5
	c-1.2,1.5-2.1,3.3-2.7,5.2c0.9,0.6,2,1.1,3,1.6c1,0.4,2,0.6,3,0.6c1,0,2-0.3,2.7-1C324.2,209.4,324.5,208.2,324.4,207z"/>
<path class="st1" d="M331.3,214.2c-0.8,0.1-1.5-0.4-1.6-1.2c0-0.1,0-0.3,0-0.4c-0.1-0.5,0.1-1,0.4-1.4c0.4-0.3,0.8-0.4,1.2-0.4h6
	c0.8-0.1,1.5,0.4,1.6,1.2c0,0.1,0,0.3,0,0.4c0.1,0.5-0.1,1-0.4,1.4c-0.3,0.3-0.8,0.4-1.2,0.4H331.3z"/>
<path class="st1" d="M337.3,214.2c-0.8,0.1-1.5-0.4-1.6-1.2c0-0.1,0-0.3,0-0.4c-0.1-0.5,0.1-1,0.4-1.4c0.3-0.3,0.8-0.4,1.2-0.4h6
	c0.8-0.1,1.5,0.4,1.6,1.2c0,0.1,0,0.3,0,0.4c0.1,0.5-0.1,1-0.4,1.4c-0.4,0.3-0.8,0.4-1.2,0.4H337.3z"/>
<path class="st1" d="M343.2,214.2c-0.8,0.1-1.5-0.4-1.6-1.2c0-0.1,0-0.3,0-0.4c-0.1-0.5,0.1-1,0.4-1.4c0.4-0.3,0.8-0.4,1.2-0.4h2.7
	c0.6,0,1.1,0,1.6-0.1c0.4,0,0.8-0.2,1.1-0.4c0.3-0.2,0.6-0.5,0.7-0.9c0.2-0.5,0.2-1.1,0.2-1.6v-9.2h3.3v7.7c0,0.6,0,1.2,0.1,1.8
	c0.1,0.5,0.3,1,0.5,1.4c0.3,0.4,0.7,0.7,1.1,0.9c0.5,0.2,1.1,0.3,1.7,0.3c0.8-0.1,1.5,0.4,1.6,1.2c0,0.1,0,0.3,0,0.4
	c0.1,0.5-0.1,1-0.4,1.4c-0.4,0.3-0.8,0.4-1.2,0.4c-0.9,0-1.8-0.2-2.5-0.8c-0.6-0.5-1.1-1.1-1.3-1.9c-0.4,1-1.2,1.8-2.3,2.1
	c-1.2,0.4-2.5,0.5-3.8,0.5L343.2,214.2z M346.4,220.2c0-1.2,1-2.1,2.1-2.1c0.6,0,1.1,0.2,1.5,0.6c0.4,0.4,0.6,0.9,0.6,1.5
	c0,1.2-1,2.1-2.1,2.1c-0.6,0-1.1-0.2-1.5-0.6C346.6,221.4,346.4,220.8,346.4,220.2z M351.6,220.2c0.1-1.2,1.1-2.1,2.3-2
	c1.1,0.1,1.9,0.9,2,2c-0.1,1.2-1.1,2.1-2.3,2C352.6,222.2,351.7,221.3,351.6,220.2z"/>
<path class="st1" d="M356.4,214.2c-0.8,0.1-1.5-0.4-1.6-1.2c0-0.1,0-0.3,0-0.4c-0.1-0.5,0.1-1,0.4-1.4c0.4-0.3,0.8-0.4,1.2-0.4h3.2
	c0.4,0,0.9,0,1.3-0.1c0.3,0,0.7-0.2,0.9-0.4c0.3-0.2,0.5-0.5,0.6-0.9c0.2-0.5,0.2-1.1,0.2-1.6v-22.4h3.3v21
	c-0.1,1.1,0.2,2.3,0.8,3.2c0.6,0.8,1.6,1.3,2.6,1.2c0.8-0.1,1.5,0.4,1.6,1.2c0,0.1,0,0.3,0,0.4c0.1,0.5-0.1,1-0.4,1.4
	c-0.4,0.3-0.8,0.4-1.2,0.4c-0.9,0-1.8-0.2-2.5-0.8c-0.6-0.5-1.1-1.1-1.3-1.9c-0.4,1-1.3,1.8-2.3,2.1c-1.3,0.4-2.7,0.5-4.1,0.5
	L356.4,214.2z"/>
<path class="st1" d="M369.5,214.2c-0.8,0.1-1.5-0.4-1.6-1.2c0-0.1,0-0.3,0-0.4c-0.1-0.5,0.1-1,0.4-1.4c0.4-0.3,0.8-0.4,1.2-0.4h6
	c0.8-0.1,1.5,0.4,1.6,1.2c0,0.1,0,0.3,0,0.4c0.1,0.5-0.1,1-0.4,1.4c-0.3,0.3-0.8,0.4-1.2,0.4H369.5z"/>
<path class="st1" d="M375.4,214.2c-0.8,0.1-1.5-0.4-1.6-1.2c0-0.1,0-0.3,0-0.4c-0.1-0.5,0.1-1,0.4-1.4c0.3-0.3,0.8-0.4,1.2-0.4h6
	c0.8-0.1,1.5,0.4,1.6,1.2c0,0.1,0,0.3,0,0.4c0.1,0.5-0.1,1-0.4,1.4c-0.4,0.3-0.8,0.4-1.2,0.4H375.4z"/>
<path class="st1" d="M381.4,214.2c-0.8,0.1-1.5-0.4-1.6-1.2c0-0.1,0-0.3,0-0.4c-0.1-0.5,0.1-1,0.4-1.4c0.4-0.3,0.8-0.4,1.2-0.4h1.8
	c1,0,2-0.1,3-0.2c1-0.1,1.9-0.4,2.9-0.6l-5-5.7c0.1-0.3,0.2-0.6,0.3-0.9s0.2-0.6,0.4-0.9s0.3-0.6,0.4-0.9c0.1-0.2,0.3-0.4,0.5-0.6
	c0.9-0.9,1.9-1.6,3.1-2.1c2.2-0.9,4.7-1,7-0.4c0.8,0.2,1.5,0.6,2.2,1.1c0.5,0.4,1,1,1.3,1.6c0.3,0.6,0.4,1.2,0.4,1.8
	c0,1.5-0.4,2.9-1.3,4.1c-0.9,1.3-2.1,2.5-3.4,3.4c0.7,0.1,1.3,0.2,2,0.2h5.6c0.8-0.1,1.5,0.4,1.6,1.2c0,0.1,0,0.3,0,0.4
	c0.1,0.5-0.1,1-0.4,1.4c-0.3,0.3-0.8,0.4-1.2,0.4H396c-0.8,0-1.5-0.1-2.2-0.3c-0.8-0.3-1.6-0.7-2.2-1.3c-1.3,0.5-2.6,0.9-3.9,1.2
	c-1.4,0.3-2.8,0.4-4.2,0.4L381.4,214.2z M392.5,201.2c-1,0-2.1,0.2-3,0.6c-0.9,0.4-1.7,1-2.3,1.7l4.9,5.2c1.2-0.6,2.2-1.3,3.1-2.3
	c0.7-0.8,1.2-1.8,1.2-2.8c0-0.7-0.4-1.3-1-1.7C394.6,201.4,393.6,201.2,392.5,201.2z"/>
<path class="st1" d="M402.7,214.2c-0.8,0.1-1.5-0.4-1.6-1.2c0-0.1,0-0.3,0-0.4c-0.1-0.5,0.1-1,0.4-1.4c0.3-0.3,0.8-0.4,1.2-0.4h2.7
	c0.6,0,1.1,0,1.6-0.1c0.4,0,0.8-0.2,1.1-0.4c0.3-0.2,0.6-0.5,0.7-0.9c0.2-0.5,0.2-1.1,0.2-1.6v-9.2h3.3v7.7c0,0.6,0,1.2,0.1,1.8
	c0.1,0.5,0.3,1,0.5,1.4c0.3,0.4,0.7,0.7,1.1,0.9c0.5,0.2,1.1,0.3,1.7,0.3c0.8-0.1,1.5,0.4,1.6,1.2c0,0.1,0,0.3,0,0.4
	c0.1,0.5-0.1,1-0.4,1.4c-0.3,0.3-0.8,0.4-1.2,0.4c-0.9,0-1.8-0.2-2.5-0.8c-0.6-0.5-1.1-1.1-1.3-1.9c-0.4,1-1.2,1.8-2.3,2.1
	c-1.2,0.4-2.5,0.5-3.8,0.5L402.7,214.2z M405.8,191.9c0-0.6,0.2-1.1,0.6-1.5c0.9-0.7,2.3-0.5,3,0.4c0.6,0.8,0.6,1.8,0,2.6
	c-0.8,0.8-2.2,0.8-3,0c0,0,0,0,0,0C406.1,193,405.8,192.5,405.8,191.9z M411.1,191.9c0-0.6,0.2-1.1,0.6-1.5c0.9-0.7,2.3-0.5,3,0.4
	c0.6,0.8,0.6,1.8,0,2.6c-0.8,0.8-2.2,0.8-3,0c0,0,0,0,0,0C411.3,193,411.1,192.5,411.1,191.9z"/>
<path class="st1" d="M415.9,214.2c-0.8,0.1-1.5-0.4-1.6-1.2c0-0.1,0-0.3,0-0.4c-0.1-0.5,0.1-1,0.4-1.4c0.3-0.3,0.8-0.4,1.2-0.4h6.3
	v-25.4h3.3v28.7H415.9z"/>
<path class="st1" d="M434.3,185.4v28.7H431v-28.7H434.3z"/>
<path class="st3" d="M452.8,199.9h5.2v12c0,1.6-0.1,3.3-0.4,4.9c-0.2,1.2-0.8,2.3-1.6,3.3c-0.8,0.9-1.9,1.5-3.1,1.8
	c-1.6,0.4-3.3,0.6-5,0.6v-4.9c0.9,0,1.7-0.1,2.6-0.4c0.6-0.2,1.1-0.5,1.4-1c0.3-0.5,0.6-1.1,0.6-1.8c0.1-0.8,0.1-1.7,0.1-2.6
	L452.8,199.9z M452.4,191.2c0-0.8,0.3-1.5,0.9-2c1-1.2,2.8-1.4,4-0.4s1.4,2.8,0.4,4c-0.1,0.1-0.2,0.3-0.4,0.4c-1.1,1.1-2.9,1.1-4,0
	C452.7,192.6,452.4,191.9,452.4,191.2L452.4,191.2z"/>
<path class="st3" d="M472.3,211.8c0.1,0.7-0.1,1.3-0.4,1.9c-0.3,0.4-0.7,0.6-1.2,0.5H469c-0.8,0-1.7-0.1-2.5-0.3
	c-0.7-0.2-1.4-0.5-2-1c-0.6-0.5-1-1.1-1.3-1.9c-0.3-0.9-0.5-1.9-0.5-2.9v-22.7h5.2v21.9c0,0.9,0.2,1.5,0.5,1.8
	c0.4,0.3,0.9,0.4,1.4,0.4h0.8c0.2,0,0.4,0,0.6,0.1c0.2,0,0.4,0.1,0.5,0.3c0.2,0.2,0.3,0.4,0.3,0.7
	C472.3,210.9,472.3,211.3,472.3,211.8z"/>
<path class="st3" d="M470.7,214.2c-0.2,0-0.4,0-0.6-0.1c-0.2,0-0.4-0.1-0.5-0.3c-0.2-0.2-0.3-0.4-0.4-0.7c-0.1-0.4-0.1-0.8-0.1-1.2
	c-0.1-0.7,0.1-1.3,0.4-1.9c0.3-0.4,0.7-0.6,1.2-0.5h6c0.2,0,0.4,0,0.6,0.1c0.2,0,0.4,0.1,0.5,0.3c0.2,0.2,0.3,0.4,0.3,0.7
	c0.1,0.4,0.1,0.8,0.1,1.2c0.1,0.7-0.1,1.3-0.4,1.9c-0.3,0.4-0.7,0.6-1.2,0.5L470.7,214.2z"/>
<path class="st3" d="M476.7,214.2c-0.2,0-0.4,0-0.6-0.1c-0.2,0-0.4-0.1-0.5-0.3c-0.2-0.2-0.3-0.4-0.3-0.7c-0.1-0.4-0.1-0.8-0.1-1.2
	c-0.1-0.7,0.1-1.3,0.4-1.9c0.3-0.4,0.7-0.6,1.2-0.5h6c0.2,0,0.4,0,0.6,0.1c0.2,0,0.4,0.1,0.5,0.3c0.2,0.2,0.3,0.4,0.3,0.7
	c0.1,0.4,0.1,0.8,0.1,1.2c0.1,0.7-0.1,1.3-0.4,1.9c-0.3,0.4-0.7,0.6-1.2,0.5L476.7,214.2z"/>
<path class="st3" d="M482.6,214.2c-0.2,0-0.4,0-0.6-0.1c-0.2,0-0.4-0.1-0.5-0.3c-0.2-0.2-0.3-0.4-0.3-0.7c-0.1-0.4-0.2-0.8-0.2-1.2
	c-0.1-0.7,0.1-1.3,0.4-1.9c0.3-0.4,0.7-0.6,1.2-0.5h6c0.2,0,0.4,0,0.6,0.1c0.2,0,0.4,0.1,0.5,0.3c0.2,0.2,0.3,0.4,0.3,0.7
	c0.1,0.4,0.1,0.8,0.1,1.2c0.1,0.7-0.1,1.3-0.4,1.9c-0.3,0.4-0.7,0.6-1.2,0.5L482.6,214.2z"/>
<path class="st3" d="M488.6,214.2c-0.2,0-0.4,0-0.6-0.1c-0.2,0-0.4-0.1-0.5-0.3c-0.2-0.2-0.3-0.4-0.3-0.7c-0.1-0.4-0.1-0.8-0.1-1.2
	c-0.1-0.7,0.1-1.3,0.4-1.9c0.3-0.4,0.7-0.6,1.2-0.5h6c0.2,0,0.4,0,0.6,0.1c0.2,0,0.4,0.1,0.5,0.3c0.2,0.2,0.3,0.4,0.3,0.7
	c0.1,0.4,0.1,0.8,0.1,1.2c0.1,0.7-0.1,1.3-0.4,1.9c-0.3,0.4-0.7,0.6-1.2,0.5L488.6,214.2z"/>
<path class="st3" d="M494.5,214.2c-0.2,0-0.4,0-0.6-0.1c-0.2,0-0.4-0.1-0.5-0.3c-0.2-0.2-0.3-0.4-0.3-0.7c-0.1-0.4-0.1-0.8-0.1-1.2
	c-0.1-0.7,0.1-1.3,0.4-1.9c0.3-0.4,0.7-0.6,1.2-0.5h6c0.2,0,0.4,0,0.6,0.1c0.2,0,0.4,0.1,0.5,0.3c0.2,0.2,0.3,0.4,0.3,0.7
	c0.1,0.4,0.1,0.8,0.1,1.2c0.1,0.7-0.1,1.3-0.4,1.9c-0.3,0.4-0.7,0.6-1.2,0.5L494.5,214.2z"/>
<path class="st3" d="M500.5,214.2c-0.2,0-0.4,0-0.6-0.1c-0.2,0-0.4-0.1-0.5-0.3c-0.2-0.2-0.3-0.4-0.3-0.7c-0.1-0.4-0.1-0.8-0.1-1.2
	c-0.1-0.7,0.1-1.3,0.4-1.9c0.3-0.4,0.7-0.6,1.2-0.5h6c0.2,0,0.4,0,0.6,0.1c0.2,0,0.4,0.1,0.5,0.3c0.2,0.2,0.3,0.4,0.4,0.7
	c0.1,0.4,0.1,0.8,0.1,1.2c0.1,0.7-0.1,1.3-0.4,1.9c-0.3,0.4-0.7,0.6-1.2,0.5L500.5,214.2z"/>
<path class="st3" d="M506.4,214.2c-0.2,0-0.4,0-0.6-0.1c-0.2,0-0.4-0.1-0.5-0.3c-0.2-0.2-0.3-0.4-0.3-0.7c-0.1-0.4-0.1-0.8-0.1-1.2
	c-0.1-0.7,0.1-1.3,0.4-1.9c0.3-0.4,0.7-0.6,1.2-0.5h5.9c0.2,0,0.4,0,0.6,0.1c0.2,0,0.4,0.1,0.5,0.3c0.2,0.2,0.3,0.4,0.3,0.7
	c0.1,0.4,0.1,0.8,0.1,1.2c0.1,0.7-0.1,1.3-0.4,1.9c-0.3,0.4-0.7,0.6-1.2,0.5L506.4,214.2z"/>
<path class="st3" d="M512.4,214.2c-0.2,0-0.4,0-0.6-0.1c-0.2,0-0.4-0.1-0.5-0.3c-0.2-0.2-0.3-0.4-0.4-0.7c-0.1-0.4-0.1-0.8-0.1-1.2
	c-0.1-0.7,0.1-1.3,0.4-1.9c0.3-0.4,0.7-0.6,1.2-0.5h6c0.2,0,0.4,0,0.6,0.1c0.2,0,0.4,0.1,0.5,0.3c0.2,0.2,0.3,0.4,0.3,0.7
	c0.1,0.4,0.1,0.8,0.1,1.2c0.1,0.7-0.1,1.3-0.4,1.9c-0.3,0.4-0.7,0.6-1.2,0.5L512.4,214.2z"/>
<path class="st3" d="M518.3,214.2c-0.2,0-0.4,0-0.6-0.1c-0.2,0-0.4-0.1-0.5-0.3c-0.2-0.2-0.3-0.4-0.3-0.7c-0.1-0.4-0.1-0.8-0.1-1.2
	c-0.1-0.7,0.1-1.3,0.4-1.9c0.3-0.4,0.7-0.6,1.2-0.5h6c0.2,0,0.4,0,0.6,0.1c0.2,0,0.4,0.1,0.5,0.3c0.2,0.2,0.3,0.4,0.3,0.7
	c0.1,0.4,0.1,0.8,0.1,1.2c0.1,0.7-0.1,1.3-0.4,1.9c-0.3,0.4-0.7,0.6-1.2,0.5L518.3,214.2z"/>
<path class="st3" d="M524.3,214.2c-0.2,0-0.4,0-0.6-0.1c-0.2,0-0.4-0.1-0.5-0.3c-0.2-0.2-0.3-0.4-0.3-0.7c-0.1-0.4-0.1-0.8-0.1-1.2
	c-0.1-0.7,0.1-1.3,0.4-1.9c0.3-0.4,0.7-0.6,1.2-0.5h6c0.2,0,0.4,0,0.6,0.1c0.2,0,0.4,0.1,0.5,0.3c0.2,0.2,0.3,0.4,0.3,0.7
	c0.1,0.4,0.1,0.8,0.1,1.2c0.1,0.7-0.1,1.3-0.4,1.9c-0.3,0.4-0.7,0.6-1.2,0.5L524.3,214.2z"/>
<path class="st3" d="M544.7,214.2c-0.4,0-0.8,0-1.2-0.1c-0.4-0.1-0.8-0.2-1.2-0.3c-0.4-0.2-0.8-0.4-1.2-0.6c-0.4-0.3-0.7-0.6-0.9-1
	c-0.3,0.4-0.7,0.8-1.2,1.1c-0.5,0.3-0.9,0.5-1.5,0.6c-0.5,0.1-1.1,0.2-1.6,0.3c-0.5,0-1.1,0.1-1.6,0.1h-4.1c-0.2,0-0.4,0-0.6-0.1
	c-0.2,0-0.4-0.1-0.5-0.3c-0.2-0.2-0.3-0.4-0.3-0.7c-0.1-0.4-0.1-0.8-0.1-1.2c-0.1-0.7,0.1-1.3,0.4-1.9c0.3-0.4,0.7-0.6,1.2-0.5h3.2
	c0.7,0.1,1.3-0.1,1.9-0.4c0.4-0.3,0.5-0.9,0.5-1.9v-9.1h5.2v8.6c-0.1,0.8,0.2,1.6,0.8,2.1c0.8,0.5,1.8,0.7,2.7,0.6
	c0.2,0,0.4,0,0.6,0.1c0.2,0,0.4,0.1,0.5,0.3c0.2,0.2,0.3,0.4,0.3,0.7c0.1,0.4,0.1,0.8,0.1,1.2c0.1,0.7-0.1,1.3-0.4,1.9
	C545.6,214,545.1,214.2,544.7,214.2z M531.3,220.9c0-0.8,0.3-1.5,0.8-2c1-1.2,2.8-1.4,4-0.4s1.4,2.8,0.4,4c-0.1,0.1-0.2,0.3-0.4,0.4
	c-1.1,1.1-2.9,1.1-4,0C531.6,222.4,531.3,221.7,531.3,220.9L531.3,220.9z M537.9,220.9c0-0.8,0.3-1.5,0.8-2c1-1.2,2.8-1.4,4-0.4
	s1.4,2.8,0.4,4c-0.1,0.1-0.2,0.3-0.4,0.4c-1.1,1.1-2.9,1.1-4,0C538.1,222.4,537.8,221.7,537.9,220.9L537.9,220.9z"/>
<path class="st3" d="M547.1,209.5c0.7,0.1,1.3-0.1,1.9-0.4c0.4-0.3,0.5-0.9,0.5-1.9v-9.1h5.2v8.6c-0.1,0.8,0.1,1.5,0.6,2.1
	c0.7,0.5,1.6,0.8,2.5,0.6c0.2,0,0.4,0,0.6,0.1c0.2,0,0.4,0.1,0.5,0.3c0.2,0.2,0.3,0.4,0.3,0.7c0.1,0.4,0.1,0.8,0.1,1.2
	c0.1,0.7-0.1,1.3-0.4,1.9c-0.3,0.4-0.7,0.6-1.2,0.5c-0.8,0-1.5-0.1-2.2-0.4c-0.8-0.3-1.4-0.9-1.8-1.7c-0.3,0.4-0.7,0.8-1.2,1.1
	c-0.5,0.3-0.9,0.5-1.5,0.6c-0.5,0.1-1.1,0.2-1.6,0.3c-0.5,0-1.1,0.1-1.6,0.1h-3.3c-0.2,0-0.4,0-0.6-0.1c-0.2,0-0.4-0.1-0.5-0.3
	c-0.2-0.2-0.3-0.4-0.3-0.7c-0.1-0.4-0.1-0.8-0.1-1.2c-0.1-0.7,0.1-1.3,0.4-1.9c0.3-0.4,0.7-0.6,1.2-0.5L547.1,209.5z M545.7,191.2
	c0-1.6,1.3-2.8,2.8-2.9c0.8,0,1.5,0.3,2,0.9c1.2,1,1.4,2.8,0.4,4c-1,1.2-2.8,1.4-4,0.4c-0.1-0.1-0.3-0.2-0.4-0.4
	C546,192.7,545.7,191.9,545.7,191.2L545.7,191.2z M552.3,191.2c0-1.6,1.3-2.8,2.8-2.9c0.8,0,1.5,0.3,2,0.9c1.2,1,1.4,2.8,0.4,4
	c-1,1.2-2.8,1.4-4,0.4c-0.1-0.1-0.3-0.2-0.4-0.4C552.6,192.7,552.3,191.9,552.3,191.2L552.3,191.2z"/>
<path class="st3" d="M559.6,209.5c0.7,0,1.3-0.3,1.7-0.8c0.5-0.7,0.9-1.5,1.1-2.3c0.5-1.4,1.1-2.7,1.9-4c0.6-0.9,1.3-1.7,2.2-2.4
	c0.7-0.5,1.5-0.9,2.3-1.1c0.7-0.2,1.5-0.3,2.2-0.3c1.1,0,2.1,0.2,3.1,0.6c0.9,0.4,1.7,1,2.3,1.7c0.7,0.8,1.2,1.6,1.5,2.6
	c0.7,2.1,0.7,4.3,0.1,6.5c-0.3,0.9-0.7,1.8-1.3,2.5c-0.6,0.7-1.4,1.3-2.2,1.6c-1,0.4-2.1,0.6-3.2,0.6c-1.1,0-2.2-0.2-3.2-0.5
	c-1.2-0.4-2.4-0.9-3.4-1.6c-0.5,0.7-1.3,1.2-2.1,1.4c-0.8,0.2-1.6,0.2-2.4,0.2h-2.1c-0.2,0-0.4,0-0.6-0.1c-0.2,0-0.4-0.1-0.5-0.3
	c-0.2-0.2-0.3-0.4-0.3-0.7c-0.1-0.4-0.1-0.8-0.1-1.2c-0.1-0.7,0.1-1.3,0.4-1.9c0.3-0.4,0.7-0.6,1.2-0.5L559.6,209.5z M573.2,206.7
	c0-0.4,0-0.8-0.1-1.2c-0.1-0.4-0.2-0.7-0.5-1.1c-0.2-0.3-0.5-0.6-0.8-0.8c-0.4-0.2-0.8-0.3-1.2-0.3c-0.9,0.1-1.8,0.5-2.3,1.2
	c-0.9,1.1-1.5,2.4-1.8,3.8c0.6,0.4,1.3,0.7,2,1c0.7,0.3,1.4,0.4,2.1,0.4c0.8,0,1.5-0.3,2-0.9C573,208.3,573.3,207.5,573.2,206.7z"/>
<path class="st3" d="M588.9,224.6H581v-2.8h1.7c-0.2-0.2-0.2-0.5-0.3-0.8c0-0.3-0.1-0.6-0.1-0.8c0-0.6,0.1-1.1,0.3-1.6
	c0.4-0.9,1.1-1.6,2-1.9c0.4-0.2,0.9-0.2,1.3-0.2c0.4,0,0.8,0,1.2,0.1c0.3,0.1,0.6,0.2,0.9,0.3v2.7c-0.5-0.1-1-0.2-1.5-0.2
	c-0.4,0-0.8,0.1-1.1,0.4c-0.2,0.2-0.3,0.6-0.3,0.9c0,0.3,0.1,0.7,0.3,0.9c0.4,0.3,0.8,0.4,1.3,0.4h2.1L588.9,224.6z M588,185.4v28.7
	h-5.2v-28.7H588z"/>
<path class="st1" d="M608.3,210.8c-0.8,0-1.5-0.1-2.2-0.3c-0.9-0.2-1.7-0.5-2.4-1c-0.8-0.5-1.5-1.2-2-2.1c-0.6-1.1-0.9-2.3-0.8-3.5
	c0-1.3,0.2-2.5,0.8-3.6c0.5-0.9,1.2-1.7,2-2.4c0.8-0.6,1.7-1.1,2.7-1.3c1-0.3,1.9-0.4,2.9-0.4h6.4v11.5c-0.1,0.8,0.1,1.7,0.5,2.4
	c0.6,0.6,1.5,0.8,2.3,0.7h1c0.8-0.1,1.5,0.4,1.6,1.2c0,0.1,0,0.3,0,0.4c0.1,0.5-0.1,1-0.4,1.4c-0.3,0.3-0.8,0.4-1.2,0.4h-1.4
	c-0.7,0-1.3-0.1-2-0.2c-0.6-0.1-1.2-0.3-1.7-0.6c-0.5-0.3-0.9-0.7-1.3-1.2c-0.4-0.6-0.6-1.3-0.7-2c-0.7,0.2-1.3,0.4-2,0.5
	C609.8,210.8,609,210.8,608.3,210.8z M604.1,203.6c0,1,0.3,2,1.1,2.7c1,0.8,2.2,1.1,3.4,1c0.6,0,1.3-0.1,1.9-0.2
	c0.6-0.1,1.2-0.3,1.8-0.5v-7.1h-3.5c-1.2,0-2.3,0.3-3.3,1C604.6,201.3,604,202.4,604.1,203.6z M605,188.9c0-0.6,0.2-1.1,0.6-1.5
	c0.8-0.8,2.2-0.9,3,0s0.9,2.2,0,3s-2.2,0.9-3,0c0,0,0,0,0,0C605.2,190,605,189.4,605,188.9L605,188.9z M610.3,188.9
	c0-1.2,0.9-2.1,2.1-2.1c0.6,0,1.1,0.2,1.5,0.6c0.4,0.4,0.6,0.9,0.6,1.5c0,0.6-0.2,1.1-0.6,1.5c-0.8,0.8-2.2,0.8-3,0
	C610.5,190,610.3,189.4,610.3,188.9z"/>
<path class="st1" d="M619.5,214.2c-0.8,0.1-1.5-0.4-1.6-1.2c0-0.1,0-0.3,0-0.4c-0.1-0.5,0.1-1,0.4-1.4c0.3-0.3,0.8-0.4,1.2-0.4h6
	c0.8-0.1,1.5,0.4,1.6,1.2c0,0.1,0,0.3,0,0.4c0.1,0.5-0.1,1-0.4,1.4c-0.4,0.3-0.8,0.4-1.2,0.4H619.5z"/>
<path class="st1" d="M625.4,214.2c-0.8,0.1-1.5-0.4-1.6-1.2c0-0.1,0-0.3,0-0.4c-0.1-0.5,0.1-1,0.4-1.4c0.4-0.3,0.8-0.4,1.2-0.4h6
	c0.8-0.1,1.5,0.4,1.6,1.2c0,0.1,0,0.3,0,0.4c0.1,0.5-0.1,1-0.4,1.4c-0.3,0.3-0.8,0.4-1.2,0.4H625.4z"/>
<path class="st1" d="M631.4,214.2c-0.8,0.1-1.5-0.4-1.6-1.2c0-0.1,0-0.3,0-0.4c-0.1-0.5,0.1-1,0.4-1.4c0.3-0.3,0.8-0.4,1.2-0.4h6
	c0.8-0.1,1.5,0.4,1.6,1.2c0,0.1,0,0.3,0,0.4c0.1,0.5-0.1,1-0.4,1.4c-0.4,0.3-0.8,0.4-1.2,0.4H631.4z"/>
<path class="st1" d="M651.2,214.2c-0.7,0-1.3-0.1-2-0.2c-0.5-0.1-0.9-0.3-1.3-0.6c-0.3-0.2-0.6-0.5-0.8-0.8c-0.2-0.3-0.4-0.6-0.5-1
	c-0.2,0.5-0.6,1-1,1.4c-0.4,0.4-1,0.6-1.5,0.8c-0.7,0.2-1.5,0.3-2.2,0.4c-0.9,0.1-1.9,0.1-3.1,0.1h-1.3c-0.8,0.1-1.5-0.4-1.6-1.2
	c0-0.1,0-0.3,0-0.4c-0.1-0.5,0.1-1,0.4-1.4c0.4-0.3,0.8-0.4,1.2-0.4h1.4c0.9,0,1.6,0,2.2-0.1c0.5,0,1-0.2,1.5-0.4
	c0.4-0.2,0.6-0.5,0.8-0.9c0.2-0.5,0.3-1,0.2-1.6v-7.2h3.3v5.7c0,0.6,0,1.2,0.1,1.8c0,0.5,0.2,1,0.4,1.4c0.2,0.4,0.5,0.7,0.9,0.9
	c0.5,0.2,1,0.3,1.5,0.3c0.6-1.6,1.3-3.1,2.1-4.5c0.9-1.5,2-2.9,3.2-4.1c1.2-1.2,2.7-2.2,4.2-3c1.6-0.8,3.4-1.2,5.2-1.1
	c2.3-0.1,4.6,0.7,6.3,2.4c1.5,1.6,2.2,3.9,2.2,6.8v3.4h3.1c0.8-0.1,1.5,0.4,1.6,1.2c0,0.1,0,0.3,0,0.4c0.1,0.5-0.1,1-0.4,1.4
	c-0.4,0.3-0.8,0.4-1.2,0.4L651.2,214.2z M669.6,210.8v-2.7c0-0.9-0.1-1.8-0.3-2.7c-0.2-0.8-0.5-1.5-1-2.1c-0.5-0.6-1.1-1.1-1.8-1.4
	c-0.8-0.3-1.8-0.5-2.7-0.5c-1.3,0-2.5,0.3-3.6,0.9c-1.1,0.6-2.2,1.3-3.1,2.2c-0.9,0.9-1.7,1.9-2.4,3c-0.6,1.1-1.2,2.2-1.6,3.3
	L669.6,210.8z"/>
<path class="st1" d="M676,214.2c-0.8,0.1-1.5-0.4-1.6-1.2c0-0.1,0-0.3,0-0.4c-0.1-0.5,0.1-1,0.4-1.4c0.4-0.3,0.8-0.4,1.2-0.4h2.7
	c0.6,0,1.1,0,1.7-0.1c0.4,0,0.8-0.2,1.1-0.4c0.3-0.2,0.6-0.5,0.7-0.9c0.2-0.5,0.2-1.1,0.2-1.6v-9.2h3.3v7.7c0,0.6,0,1.2,0.1,1.8
	c0.1,0.5,0.3,1,0.5,1.4c0.3,0.4,0.7,0.7,1.1,0.9c0.5,0.2,1.1,0.3,1.7,0.3c0.8-0.1,1.5,0.4,1.6,1.2c0,0.1,0,0.3,0,0.4
	c0.1,0.5-0.1,1-0.4,1.4c-0.4,0.3-0.8,0.4-1.2,0.4c-0.9,0-1.8-0.2-2.5-0.8c-0.6-0.5-1.1-1.1-1.3-1.9c-0.4,1-1.2,1.8-2.3,2.1
	c-1.2,0.4-2.5,0.5-3.8,0.5L676,214.2z M682,191.9c0-0.6,0.2-1.1,0.6-1.5c0.9-0.7,2.3-0.5,3,0.4c0.6,0.8,0.6,1.8,0,2.6
	c-0.8,0.8-2.2,0.8-3,0c0,0,0,0,0,0C682.2,193,682,192.5,682,191.9z"/>
<path class="st1" d="M689.2,214.2c-0.8,0.1-1.5-0.4-1.6-1.2c0-0.1,0-0.3,0-0.4c-0.1-0.5,0.1-1,0.4-1.4c0.4-0.3,0.8-0.4,1.2-0.4h6
	c0.8-0.1,1.5,0.4,1.6,1.2c0,0.1,0,0.3,0,0.4c0.1,0.5-0.1,1-0.4,1.4c-0.3,0.3-0.8,0.4-1.2,0.4H689.2z"/>
<path class="st1" d="M695.1,214.2c-0.8,0.1-1.5-0.4-1.6-1.2c0-0.1,0-0.3,0-0.4c-0.1-0.5,0.1-1,0.4-1.4c0.3-0.3,0.8-0.4,1.2-0.4h6
	c0.8-0.1,1.5,0.4,1.6,1.2c0,0.1,0,0.3,0,0.4c0.1,0.5-0.1,1-0.4,1.4c-0.4,0.3-0.8,0.4-1.2,0.4H695.1z"/>
<path class="st1" d="M701,214.2c-0.8,0.1-1.5-0.4-1.6-1.2c0-0.1,0-0.3,0-0.4c-0.1-0.5,0.1-1,0.4-1.4c0.4-0.3,0.8-0.4,1.2-0.4h1.7
	c0.3,0,0.7,0,1-0.1c0.4-0.1,0.7-0.3,1-0.5c0.4-0.3,0.7-0.7,1-1.1c0.4-0.6,0.7-1.2,0.9-1.9c0.5-1.5,1.2-2.9,2-4.2
	c0.6-0.9,1.3-1.8,2.1-2.5c0.6-0.5,1.4-0.9,2.2-1.1c0.7-0.2,1.5-0.3,2.2-0.3c1,0,1.9,0.2,2.8,0.6c0.9,0.4,1.6,1,2.2,1.7
	c0.6,0.7,1.2,1.6,1.5,2.5c0.4,1.1,0.6,2.2,0.5,3.3c0.1,2-0.5,3.9-1.7,5.5c-1.3,1.4-3.2,2.2-5.1,2c-1.3,0-2.6-0.2-3.8-0.6
	c-1.4-0.5-2.8-1.2-4-2.2c-0.3,0.5-0.7,0.9-1.1,1.3c-0.3,0.3-0.7,0.5-1.1,0.7c-0.4,0.1-0.8,0.2-1.2,0.3c-0.4,0-0.9,0.1-1.4,0.1
	L701,214.2z M718.9,207c0-0.6-0.1-1.2-0.3-1.7c-0.2-0.5-0.4-1-0.8-1.5c-0.3-0.4-0.8-0.8-1.2-1c-0.5-0.3-1.1-0.4-1.7-0.4
	c-1.2,0-2.3,0.6-3.1,1.5c-1.2,1.5-2.1,3.3-2.7,5.2c0.9,0.6,2,1.1,3,1.6c1,0.4,2,0.6,3,0.6c1,0,2-0.3,2.7-1
	C718.7,209.4,719,208.2,718.9,207z"/>
</svg>
